<?xml version="1.0" encoding="utf-8"?>
<!-- Generator: Adobe Illustrator 22.0.0, SVG Export Plug-In . SVG Version: 6.00 Build 0)  -->
<svg version="1.1" id="Слой_1" xmlns="http://www.w3.org/2000/svg" xmlns:xlink="http://www.w3.org/1999/xlink" x="0px" y="0px"
	 viewBox="0 0 100 100" style="enable-background:new 0 0 100 100;" xml:space="preserve">
<style type="text/css">
	.st0{fill:url(#SVGID_1_);}
	.st1{fill:url(#SVGID_2_);}
	.st2{fill:none;stroke:url(#SVGID_3_);stroke-miterlimit:10;}
	.st3{fill:#E9F5FB;}
	.st4{fill:url(#SVGID_4_);}
	.st5{fill:url(#SVGID_5_);}
	.st6{fill:url(#SVGID_6_);}
	.st7{fill:url(#SVGID_7_);}
	.st8{fill:none;stroke:url(#SVGID_8_);stroke-width:3;stroke-linecap:round;stroke-linejoin:round;stroke-miterlimit:10;}
	.st9{fill:url(#SVGID_9_);}
</style>
<g>
	<linearGradient id="SVGID_1_" gradientUnits="userSpaceOnUse" x1="54.114" y1="47.4226" x2="50.614" y2="54.0893">
		<stop  offset="0" style="stop-color:#1570A3"/>
		<stop  offset="1" style="stop-color:#B9D7E4"/>
	</linearGradient>
	<path class="st0" d="M78.2,46.5L77.6,46c0,0-3.3,11.9-28.3,4c-25-7.8-30.1,7.1-30.1,7.1c3,13.3,15,23.3,29.2,23.3
		c16.6,0,30-13.4,30-30C78.4,49.2,78.3,47.8,78.2,46.5z"/>
	<linearGradient id="SVGID_2_" gradientUnits="userSpaceOnUse" x1="48.226" y1="61.2297" x2="47.5593" y2="73.5631">
		<stop  offset="0" style="stop-color:#DFF5FB"/>
		<stop  offset="0.2502" style="stop-color:#D3EEF6"/>
		<stop  offset="1" style="stop-color:#AED8E6"/>
	</linearGradient>
	<path class="st1" d="M77.6,57.3c-3.6,2.2-7.9,3.4-12.4,3.4c-5.2,0-10-1.6-13.9-4.4l-1.6-1.3c-3.9-2.8-8.7-4.4-13.9-4.4
		c-6.4,0-12.2,2.5-16.5,6.6c3,13.3,15,23.3,29.2,23.3C62.7,80.5,74.5,70.6,77.6,57.3z"/>
	<linearGradient id="SVGID_3_" gradientUnits="userSpaceOnUse" x1="17.9833" y1="50.5" x2="78.9363" y2="50.5">
		<stop  offset="0" style="stop-color:#DFF5FB"/>
		<stop  offset="0.2502" style="stop-color:#D3EEF6"/>
		<stop  offset="1" style="stop-color:#AED8E6"/>
	</linearGradient>
	<circle class="st2" cx="48.5" cy="50.5" r="30"/>
	<path class="st3" d="M27.6,43.1L27.6,43.1C27.6,43.1,27.6,43.1,27.6,43.1c-0.7,0-1.2-0.5-1.2-1.2c0,0,0,0,0,0h0c0,0,0,0,0,0
		c0,0.7-0.5,1.2-1.2,1.2c0.7,0,1.2,0.5,1.2,1.2c0,0,0,0,0,0h0C26.4,43.6,27,43.1,27.6,43.1z"/>
	<path class="st3" d="M60.9,30.2L60.9,30.2C60.9,30.2,60.9,30.2,60.9,30.2c-1.1,0-1.9-0.8-1.9-1.8c0,0,0,0,0,0h0c0,0,0,0,0,0
		c0,1-0.8,1.9-1.9,1.9c1,0,1.9,0.8,1.9,1.9c0,0,0,0,0,0h0C59.1,31,59.9,30.2,60.9,30.2z"/>
	<linearGradient id="SVGID_4_" gradientUnits="userSpaceOnUse" x1="57.2962" y1="46.4862" x2="57.0991" y2="52.1522">
		<stop  offset="0" style="stop-color:#F28B6C"/>
		<stop  offset="1" style="stop-color:#C7586B"/>
	</linearGradient>
	<circle class="st4" cx="57.2" cy="49.6" r="4.9"/>
	<linearGradient id="SVGID_5_" gradientUnits="userSpaceOnUse" x1="43.9897" y1="38.0447" x2="43.8099" y2="32.2653">
		<stop  offset="0" style="stop-color:#9FDBE9;stop-opacity:0"/>
		<stop  offset="1" style="stop-color:#9FDBE9"/>
	</linearGradient>
	<circle class="st5" cx="44" cy="37.5" r="2.8"/>
	<linearGradient id="SVGID_6_" gradientUnits="userSpaceOnUse" x1="66.7934" y1="40.3557" x2="66.4972" y2="30.8348">
		<stop  offset="0" style="stop-color:#9FDBE9;stop-opacity:0"/>
		<stop  offset="1" style="stop-color:#9FDBE9"/>
	</linearGradient>
	<circle class="st6" cx="66.8" cy="39.5" r="4.6"/>
	<linearGradient id="SVGID_7_" gradientUnits="userSpaceOnUse" x1="32.9427" y1="46.7097" x2="32.8727" y2="48.7229">
		<stop  offset="0" style="stop-color:#F28B6C"/>
		<stop  offset="1" style="stop-color:#C7586B"/>
	</linearGradient>
	<circle class="st7" cx="32.9" cy="47.8" r="1.8"/>
	<linearGradient id="SVGID_8_" gradientUnits="userSpaceOnUse" x1="35.686" y1="32.7721" x2="35.4311" y2="24.5774">
		<stop  offset="0" style="stop-color:#9FDBE9;stop-opacity:0"/>
		<stop  offset="1" style="stop-color:#9FDBE9;stop-opacity:0.2"/>
	</linearGradient>
	<path class="st8" d="M30,31.4c0,0,5.6-5,11.2-5.5"/>
	<linearGradient id="SVGID_9_" gradientUnits="userSpaceOnUse" x1="70.1804" y1="39.9779" x2="50.6804" y2="53.4779">
		<stop  offset="0" style="stop-color:#1570A3"/>
		<stop  offset="1" style="stop-color:#B9D7E4"/>
	</linearGradient>
	<path class="st9" d="M86.9,27.3c-2.3-3.5-8.4-4-17.1-1.5c-0.8,0.2-1.6,0.5-2.4,0.8c0,0,0,0-0.1,0c0.6,0.5,1.2,1,1.8,1.5
		c0.4-0.1,0.9-0.3,1.3-0.4c7.7-2.2,13.1-1.9,14.9,0.7c1.7,2.6,0,7.6-4.9,13.7c-10.7,13.5-33,28.4-49.7,33.1
		c-7.7,2.2-13.1,1.9-14.9-0.7c-1.7-2.5-0.1-7.2,4.3-13c-0.3-0.7-0.5-1.5-0.8-2.2c0,0,0,0-0.1,0l-0.2,0.2c-5.5,6.9-7.2,12.6-5,16.1
		c1.4,2,4,3.1,7.7,3.1c2.6,0,5.8-0.5,9.3-1.5c17.1-4.9,39.8-20,50.8-33.8C87.4,36.5,89.2,30.7,86.9,27.3z"/>
</g>
</svg>
